# xmcd
#
# Track frame offsets: 
#        150
#        11930
#        25915
#        39282
#        53920
#        68550
#        83662
#        96435
#        110612
#        123812
#        138592
#        152732
#        164552
#        178942
#        194270
#        206992
#        222530
#
# Disc length: 3158 seconds
#
# Revision: 1
# Processed by: cddbd v1.5.2PL0 Copyright (c) Steve Scherf et al.
# Submitted via: ExactAudioCopy v0.99pb4
#
DISCID=f90c5411
DTITLE=Sonny Boy Williamson - Original Sonny
DYEAR=1997
DGENRE=
TTITLE0=Bad Luck Blues (1)
TTITLE1=My Baby I've Been Your Slave
TTITLE2=Whiskey Headed Blues
TTITLE3=Susie Q
TTITLE4=Low Down Ways
TTITLE5=Insurance Man Blues
TTITLE6=Good Gravy
TTITLE7=Collector Man
TTITLE8=Joe Louis and John Henry
TTITLE9=Doggin' My Love Around
TTITLE10=Until My Love Come Down
TTITLE11=Bad Luck Blues (2)
TTITLE12=Goodbye Red
TTITLE13=The Right Kind of Life
TTITLE14=Little Low Woman Blues
TTITLE15=Blue Bird Blues
TTITLE16=You Give an Account
EXTD=
EXTT0=
EXTT1=
EXTT2=
EXTT3=
EXTT4=
EXTT5=
EXTT6=
EXTT7=
EXTT8=
EXTT9=
EXTT10=
EXTT11=
EXTT12=
EXTT13=
EXTT14=
EXTT15=
EXTT16=
PLAYORDER=
